<svg xmlns="http://www.w3.org/2000/svg" viewBox="0 0 64 64" role="img" aria-label="Old Chapel Veterinary Clinic icon">
  <rect width="64" height="64" rx="18" fill="#7f9b8a"/>
  <path d="M18 40c0-6 4-10 8.7-10 2.1 0 3.7.7 5.2 1.9 1.6-1.2 3.1-1.9 5.2-1.9C42 30 46 34 46 40v4H18v-4Zm4.5-13.7c0-2.6 1.7-4.3 3.9-4.3s3.9 1.7 3.9 4.3-1.7 4.3-3.9 4.3-3.9-1.7-3.9-4.3Zm11.2 0c0-2.6 1.7-4.3 3.9-4.3s3.9 1.7 3.9 4.3-1.7 4.3-3.9 4.3-3.9-1.7-3.9-4.3Z" fill="#fff8ef"/>
  <path d="M30 18l2-4 2 4 4 .6-3 2.7.8 3.9-3.8-2-3.8 2 .8-3.9-3-2.7 4-.6Z" fill="#fff8ef" opacity=".95"/>
</svg>
